<svg xmlns="http://www.w3.org/2000/svg" viewBox="0 0 75 75" style="fill:#212121"><circle cx="37.5" cy="37.5" r="37.5" style="fill:#ABE1FA;"/><path d="M50.616,62.789c-3.59,3.653 -8.013,5.48 -13.266,5.48c-5.896,0 -10.574,-2.017 -14.033,-6.054c-3.269,-3.846 -4.903,-8.747 -4.903,-14.705c-0,-6.407 2.788,-13.714 8.362,-21.918c4.548,-6.727 9.9,-12.622 16.052,-17.685c-0.898,4.102 -1.345,7.016 -1.345,8.747c0,3.974 1.248,7.85 3.747,11.631c3.077,4.485 5.414,7.819 7.018,9.996c2.499,3.782 3.748,7.466 3.748,11.052c0.002,5.32 -1.793,9.806 -5.38,13.456Zm-0.097,-20.521c-0.961,-2.146 -2.082,-3.572 -3.364,-4.278c0.192,0.386 0.288,0.93 0.288,1.635c0,1.347 -0.384,3.268 -1.154,5.767l-1.248,3.845c0,2.243 1.119,3.365 3.363,3.365c2.37,-0 3.557,-1.571 3.557,-4.711c-0,-1.6 -0.48,-3.474 -1.442,-5.623Z"/></svg>
