<svg xmlns="http://www.w3.org/2000/svg" viewBox="0 0 75 75" style="fill:#212121"><path d="M75,37.5c0,20.7 -16.8,37.5 -37.5,37.5c-20.7,0 -37.5,-16.8 -37.5,-37.5c0,-20.7 16.8,-37.5 37.5,-37.5c20.7,0 37.5,16.8 37.5,37.5Z" style="fill:#c6c6c6;fill-rule:nonzero;"/><path d="M37.275,9c1.875,3.75 4.125,7.35 6.825,10.875c1.125,1.5 2.475,3 3.975,4.575c1.425,1.575 3.075,3.225 4.875,4.725c1.8,1.575 3.675,3.075 5.85,4.5c2.175,1.425 4.35,2.7 6.825,3.825c-3.6,1.95 -7.125,4.275 -10.65,6.975c-1.5,1.125 -3,2.475 -4.575,3.975c-1.575,1.5 -3.15,3.15 -4.725,4.95c-1.5,1.8 -3,3.75 -4.425,5.85c-1.425,2.1 -2.7,4.35 -3.825,6.75c-1.8,-3.525 -4.05,-6.975 -6.75,-10.5c-2.325,-2.925 -5.25,-6.075 -8.775,-9.3c-3.525,-3.3 -7.8,-6.15 -12.75,-8.775c3.6,-1.875 7.125,-4.2 10.65,-6.9c3,-2.4 6.075,-5.325 9.3,-8.85c3.075,-3.45 5.85,-7.725 8.175,-12.675Zm-4.125,39.675c1.65,2.1 3.075,4.275 4.125,6.45c1.425,-3 3.075,-5.625 5.1,-7.8c1.95,-2.175 3.9,-3.975 5.775,-5.475c2.1,-1.65 4.35,-3.075 6.6,-4.35c-3.075,-1.425 -5.7,-3.075 -7.8,-5.1c-2.175,-1.95 -3.975,-3.9 -5.4,-5.775c-1.65,-2.1 -3.075,-4.35 -4.2,-6.75c-1.425,3.075 -3.075,5.7 -5.025,7.875c-1.95,2.175 -3.825,3.975 -5.7,5.475c-2.1,1.65 -4.35,3.075 -6.6,4.2c3.075,1.575 5.7,3.375 7.875,5.4c2.175,2.025 3.825,4.05 5.25,5.85Z"/></svg>
