<svg xmlns="http://www.w3.org/2000/svg" viewBox="0 0 75 75" style="fill:#212121"><path d="M75,37.499c0,20.711 -16.789,37.501 -37.502,37.501c-20.709,0 -37.498,-16.79 -37.498,-37.502c0,-20.709 16.789,-37.498 37.499,-37.498c20.712,0 37.501,16.789 37.501,37.499Z" style="fill:#9BD3AE"/><path d="M70.322,42.169c-0.001,1.251 -0.484,2.373 -1.453,3.373c-0.966,0.999 -2.077,1.499 -3.326,1.499c-1.997,-0 -3.468,-0.938 -4.402,-2.811l-4.404,-0.188c-0.939,0 -2.781,0.407 -5.528,1.219c-2.935,0.811 -4.623,1.468 -5.059,1.967c-0.687,0.749 -1.248,2.499 -1.686,5.247c-0.377,2.249 -0.561,3.904 -0.561,4.966c-0,1.684 0.264,2.92 0.795,3.7c0.532,0.781 1.625,1.437 3.279,1.968c1.653,0.53 2.67,0.828 3.045,0.89c0.249,-0 0.655,-0.031 1.219,-0.094l1.124,0c0.81,0 1.653,0.128 2.529,0.375c1.25,0.375 1.782,0.875 1.594,1.5c-0.876,-0.124 -2.405,0.063 -4.591,0.563l2.622,1.311c0,0.75 -1.062,1.123 -3.184,1.123c-0.564,0 -1.328,-0.124 -2.297,-0.373c-0.969,-0.252 -1.609,-0.375 -1.92,-0.375l-1.218,-0c-0.062,0.624 -0.251,1.56 -0.563,2.809c-1.063,-0.063 -2.31,-0.688 -3.747,-1.873c-1.438,-1.185 -2.342,-1.78 -2.716,-1.78c-0.376,0 -0.908,0.595 -1.593,1.78c-0.689,1.185 -1.032,1.998 -1.032,2.436c-0.811,-0.438 -1.497,-1.251 -2.062,-2.436c-0.249,-0.813 -0.53,-1.625 -0.841,-2.436c-0.624,0.063 -1.781,1.375 -3.466,3.936l-0.47,-0c-0.124,-0.189 -0.596,-1.5 -1.405,-3.936c-1.936,-0.624 -3.747,-0.936 -5.434,-0.936c-0.812,-0 -2.061,0.187 -3.747,0.561l-2.622,-0.186c0.373,-0.375 1.466,-1.093 3.278,-2.155c2.123,-1.249 3.747,-1.875 4.872,-1.875c0.185,0 0.434,0.032 0.75,0.094c0.311,0.064 0.563,0.094 0.75,0.094c0.434,-0 1.139,-0.234 2.107,-0.704c0.968,-0.467 1.529,-0.889 1.684,-1.263c0.159,-0.378 0.237,-1.345 0.237,-2.906c0,-3.56 -0.937,-6.214 -2.812,-7.963c-1.626,-1.561 -4.31,-2.685 -8.058,-3.373c-0.999,3.559 -3.81,5.342 -8.43,5.342c-1.5,-0 -2.999,-0.905 -4.497,-2.717c-1.497,-1.812 -2.247,-3.468 -2.247,-4.966c-0,-2.312 0.965,-4.216 2.902,-5.717c-1.56,-1.622 -2.341,-3.277 -2.341,-4.963c-0,-1.563 0.482,-2.936 1.452,-4.125c0.968,-1.184 2.233,-1.872 3.794,-2.061c-0.124,-1.997 0.53,-3.372 1.967,-4.122c-0.687,-0.686 -1.029,-1.903 -1.029,-3.652c-0,-2.061 0.687,-3.779 2.061,-5.153c1.372,-1.374 3.09,-2.063 5.151,-2.063c2.25,0 4.093,0.784 5.529,2.344c1.812,-6.183 5.715,-9.275 11.709,-9.275c3.123,-0 5.871,1.249 8.246,3.748c0.874,0.936 1.311,1.437 1.311,1.497c-0.75,0 -0.374,-0.141 1.125,-0.42c1.497,-0.282 2.59,-0.423 3.28,-0.423c2.434,0 4.589,0.906 6.464,2.718c1.623,1.624 2.748,3.684 3.373,6.183c0.435,0.063 1.124,0.249 2.061,0.561c1.373,0.69 2.061,1.873 2.061,3.561c0,0.313 -0.252,0.906 -0.75,1.779c3.996,2.249 5.996,5.372 5.996,9.369c-0,1.124 -0.437,2.688 -1.311,4.686c1.624,0.935 2.434,2.31 2.434,4.121Zm-38.6,4.122l0,-1.217c0,-1.436 -0.702,-2.748 -2.107,-3.935c-1.406,-1.186 -2.827,-1.78 -4.263,-1.78c-1.75,0 -3.372,0.406 -4.872,1.216c3.31,-0.186 7.059,1.72 11.242,5.716Zm-1.684,-11.617c-0.938,-1.063 -1.749,-2.156 -2.438,-3.28c-2.623,0.687 -3.934,1.468 -3.934,2.341c0.75,-0.06 1.842,0.079 3.278,0.423c1.435,0.344 2.468,0.516 3.094,0.516Zm5.715,-2.905l0,-4.122c-1.5,-0.249 -2.408,-0.375 -2.717,-0.375l0,1.405l2.717,3.092Zm12.179,-2.623c-0.75,-0.312 -2.156,-0.938 -4.216,-1.874l0,8.057c2.934,-1.688 4.339,-3.749 4.216,-6.183Zm5.15,11.056l-2.059,-2.53c-1.248,0.875 -2.514,1.765 -3.796,2.671c-1.282,0.905 -2.39,1.922 -3.324,3.045c2.81,-1.502 5.872,-2.561 9.179,-3.186Z"/></svg>
