<svg xmlns="http://www.w3.org/2000/svg" viewBox="0 0 75 75" style="fill:#212121"><path d="M63.975,10.95c6.825,6.825 11.025,16.2 11.025,26.55c0,20.7 -16.8,37.5 -37.5,37.5c-10.35,0 -19.725,-4.2 -26.55,-10.95" style="fill:#FFFCD5;fill-rule:nonzero;"/><path d="M10.95,64.05c-6.75,-6.825 -10.95,-16.2 -10.95,-26.55c0,-20.7 16.8,-37.5 37.5,-37.5c10.35,0 19.725,4.2 26.475,10.95" style="fill:#c6c6c6;fill-rule:nonzero;"/><path d="M32.7,31.2l-2.175,7.275l-17.775,0l0,-1.575c0.9,-0.975 2.775,-2.925 5.7,-5.85c1.8,-1.8 3.525,-3.675 5.25,-5.625c0.9,-0.975 1.5,-1.8 2.025,-2.475c1.05,-1.5 1.575,-3 1.575,-4.575c0,-1.5 -0.45,-2.85 -1.425,-4.05c-0.975,-1.2 -2.175,-1.725 -3.675,-1.725c-3.225,-0 -5.775,2.175 -7.575,6.525l-1.575,-0.6c2.175,-6.15 5.55,-9.225 10.275,-9.225c2.325,-0 4.275,0.75 5.85,2.325c1.65,1.575 2.4,3.525 2.4,5.775c0,2.925 -1.65,5.775 -5.025,8.625l-3.525,2.925c-2.25,1.875 -4.125,3.6 -5.55,5.25c-0.075,0.075 -0.3,0.3 -0.6,0.675l9.3,-0c1.425,-0 2.55,-0.3 3.225,-0.825c0.6,-0.525 1.275,-1.425 1.875,-2.85l1.425,-0Z" style="fill:#000000;fill-rule:nonzero;"/><path d="M66,54.825c-1.8,-1.725 -3.075,-2.625 -3.6,-2.775c-0.45,-0.075 -0.825,0.15 -1.275,0.75c-0.45,0.6 -0.975,0.825 -1.725,0.675c-0.3,-0.075 -0.9,-0.3 -1.725,-0.75c-0.675,0.675 -1.05,1.125 -1.125,1.35c-0.075,0.3 0.075,0.675 0.375,1.2c0.375,0.525 0.675,0.825 0.975,0.9c0.225,0.075 0.45,0.075 0.825,0.075c0.375,0 0.6,0 0.675,0.075c0.3,0.075 0.375,0.75 0.075,1.95c-0.3,1.2 -0.975,2.925 -2.1,5.175c-0.075,-2.925 -0.45,-4.5 -1.275,-4.65c-0.075,0 -0.375,0 -0.75,0.075c-0.375,0.075 -0.675,0.075 -0.825,0.075c-0.75,-0.225 -1.35,-1.05 -1.575,-2.625c-1.275,-0.075 -2.1,0.375 -2.325,1.425c-0.15,0.525 0,1.05 0.45,1.5c0.45,0.45 0.6,0.75 0.6,0.9c-0.15,0.75 -1.5,1.575 -4.05,2.625c-1.35,0.525 -2.25,0.9 -2.775,1.125c0.525,-0.375 1.05,-0.975 1.575,-1.65c0.675,-0.825 1.05,-1.425 1.125,-1.95c0.075,-0.3 -0.15,-0.75 -0.675,-1.35c-0.525,-0.6 -0.675,-1.2 -0.6,-1.8c0.075,-0.45 0.375,-0.975 0.9,-1.575c-0.225,-0.525 -0.6,-0.825 -1.125,-0.9c-1.05,-0.225 -1.725,0 -1.875,0.675c0.15,-0.525 0,-0.15 -0.225,1.125c-0.15,0.9 -0.975,1.2 -2.325,0.825c-1.05,-0.225 -2.775,-0.9 -5.175,-2.025c3,0 4.575,-0.525 4.8,-1.425c0,0.075 0,-0.225 0.075,-1.05c0.075,-0.9 0.9,-1.5 2.325,-1.875c0.075,-1.275 -0.45,-2.1 -1.5,-2.325c-0.15,-0.075 -0.525,0.15 -1.125,0.675c-0.6,0.45 -1.05,0.675 -1.425,0.525c-0.675,-0.15 -1.35,-1.05 -2.025,-2.7c-0.3,-0.825 -0.825,-2.025 -1.5,-3.675c0.525,0.45 1.125,0.975 1.65,1.425c0.75,0.6 1.35,0.9 1.8,1.05c0.375,0.075 0.825,-0.15 1.35,-0.75c0.525,-0.6 1.05,-0.825 1.65,-0.675c0.075,0 0.6,0.3 1.5,0.9c0.675,-0.675 1.125,-1.2 1.2,-1.575c0.075,-0.3 0,-0.75 -0.3,-1.275c-0.3,-0.525 -0.6,-0.825 -0.9,-0.9c-0.15,0 -0.375,-0.075 -0.675,0l-0.675,0c-0.45,-0.15 -0.6,-0.75 -0.3,-2.025c0.075,-0.3 0.825,-2.1 2.25,-5.325c-0.15,0.375 -0.15,1.2 -0,2.4c0.15,1.5 0.525,2.25 1.125,2.4c0.075,0 0.375,0 0.675,-0.075c0.375,-0.075 0.675,-0.075 0.825,-0.075c0.6,0.15 1.05,0.6 1.275,1.425l0.375,1.275c0.6,0.15 1.125,0.075 1.575,-0.3c0.45,-0.3 0.75,-0.75 0.9,-1.35c0.15,-0.6 -0,-1.125 -0.45,-1.575c-0.45,-0.45 -0.6,-0.75 -0.6,-0.9c0.15,-0.6 1.275,-1.35 3.375,-2.25c1.725,-0.75 2.775,-1.125 3.225,-1.275c-1.575,1.275 -2.4,2.325 -2.55,3c-0.075,0.375 0.075,0.825 0.375,1.35c0.45,0.675 0.675,1.125 0.675,1.35c0.15,0.675 -0.075,1.5 -0.675,2.55c0.6,0.675 1.125,1.05 1.5,1.2c0.75,0.15 1.275,-0.15 1.5,-0.9c-0,-0.075 0.075,-0.375 0.075,-0.825c-0,-0.45 0.075,-0.675 0.15,-0.75c0.225,-0.375 0.975,-0.375 2.4,-0c0.9,0.225 2.625,0.9 5.25,2.025c-0.6,-0 -1.575,0.075 -2.85,0.075c-1.125,0.075 -1.8,0.3 -1.875,0.675c-0.075,0.225 -0.075,0.525 -0,1.05c0.075,0.525 -0,0.825 -0.075,1.05c-0.075,0.375 -0.45,0.675 -0.975,0.9l-1.65,0.675c0.15,0.675 0.3,1.05 0.375,1.2c0.225,0.375 0.525,0.675 0.975,0.75c0.3,0.075 0.675,-0.15 1.125,-0.675c0.375,-0.525 0.9,-0.675 1.5,-0.525c0.75,0.15 1.425,1.05 2.025,2.625c0.525,0.9 1.05,2.25 1.8,4.05Zm-8.475,-4.5c0.45,-1.725 0.15,-3.375 -0.825,-4.95c-0.975,-1.575 -2.325,-2.55 -4.05,-3c-1.725,-0.45 -3.45,-0.15 -5.025,0.825c-1.575,0.975 -2.55,2.325 -3,4.05c-0.45,1.725 -0.15,3.375 0.825,4.95c0.975,1.575 2.4,2.55 4.125,3c1.875,0.45 3.525,0.225 5.025,-0.675c1.575,-0.975 2.55,-2.325 2.925,-4.2Zm-0.6,-0.15c-0.375,1.65 -1.275,2.925 -2.625,3.675c-1.35,0.825 -2.85,1.05 -4.5,0.6c-1.575,-0.375 -2.85,-1.275 -3.675,-2.625c-0.9,-1.35 -1.125,-2.85 -0.75,-4.5c0.375,-1.575 1.275,-2.775 2.7,-3.6c1.425,-0.825 2.925,-1.05 4.5,-0.675c1.575,0.375 2.775,1.275 3.675,2.7c0.825,1.425 1.05,2.85 0.675,4.425Z"/></svg>
