<svg xmlns="http://www.w3.org/2000/svg" viewBox="0 0 75 75" style="fill:#212121"><path d="M63.975,10.95c6.825,6.825 11.025,16.2 11.025,26.55c0,20.7 -16.8,37.5 -37.5,37.5c-10.35,0 -19.725,-4.2 -26.55,-10.95" style="fill:#9BD3AE;fill-rule:nonzero;"/><path d="M10.95,64.05c-6.75,-6.75 -10.95,-16.125 -10.95,-26.55c0,-20.7 16.8,-37.5 37.5,-37.5c10.35,0 19.725,4.2 26.475,10.95" style="fill:#c6c6c6;fill-rule:nonzero;"/><path d="M32.7,31.2l-2.175,7.275l-17.775,0l0,-1.575c0.9,-0.975 2.775,-2.925 5.7,-5.85c1.8,-1.8 3.525,-3.675 5.25,-5.625c0.9,-0.975 1.5,-1.8 2.025,-2.475c1.05,-1.5 1.575,-3 1.575,-4.575c0,-1.5 -0.45,-2.85 -1.425,-4.05c-0.975,-1.2 -2.175,-1.725 -3.675,-1.725c-3.225,-0 -5.775,2.175 -7.575,6.525l-1.575,-0.6c2.175,-6.15 5.55,-9.225 10.275,-9.225c2.325,-0 4.275,0.75 5.85,2.325c1.65,1.575 2.4,3.525 2.4,5.775c0,2.925 -1.65,5.775 -5.025,8.625l-3.525,2.925c-2.25,1.875 -4.125,3.6 -5.55,5.25c-0.075,0.075 -0.3,0.3 -0.6,0.675l9.3,-0c1.425,-0 2.55,-0.3 3.225,-0.825c0.6,-0.525 1.275,-1.425 1.875,-2.85l1.425,-0Z" style="fill:#000000;fill-rule:nonzero;"/><path d="M67.125,50.7c0,0.6 -0.225,1.05 -0.675,1.5c-0.45,0.45 -0.975,0.675 -1.5,0.675c-0.9,0 -1.575,-0.45 -2.025,-1.275l-2.025,-0.075c-0.45,-0 -1.275,0.15 -2.475,0.525c-1.35,0.375 -2.1,0.675 -2.325,0.9c-0.3,0.375 -0.6,1.125 -0.75,2.4c-0.15,1.05 -0.225,1.8 -0.225,2.25c0,0.75 0.15,1.35 0.375,1.65c0.225,0.375 0.75,0.675 1.5,0.9c0.75,0.225 1.2,0.375 1.35,0.375c0.15,-0 0.3,-0 0.525,-0.075l0.525,-0c0.375,-0 0.75,0.075 1.125,0.15c0.6,0.15 0.825,0.375 0.75,0.675c-0.375,-0.075 -1.125,-0 -2.1,0.225l1.2,0.6c0,0.375 -0.45,0.525 -1.425,0.525c-0.225,-0 -0.6,-0.075 -1.05,-0.15c-0.45,-0.15 -0.75,-0.15 -0.9,-0.15l-0.525,-0c0,0.3 -0.15,0.675 -0.225,1.275c-0.45,-0 -1.05,-0.3 -1.725,-0.825c-0.675,-0.525 -1.05,-0.825 -1.2,-0.825c-0.15,-0 -0.45,0.3 -0.75,0.825c-0.3,0.525 -0.45,0.9 -0.45,1.125c-0.375,-0.225 -0.675,-0.6 -0.9,-1.125c-0.15,-0.375 -0.225,-0.75 -0.375,-1.125c-0.3,-0 -0.825,0.6 -1.575,1.8l-0.225,-0c-0.075,-0.075 -0.3,-0.675 -0.675,-1.8c-0.9,-0.3 -1.725,-0.45 -2.475,-0.45c-0.375,-0 -0.9,0.075 -1.725,0.225l-1.2,-0.075c0.15,-0.15 0.675,-0.525 1.5,-0.975c0.975,-0.6 1.725,-0.825 2.175,-0.825c0.075,-0 0.225,-0 0.375,0.075c0.15,-0 0.225,0.075 0.375,0.075c0.225,-0 0.525,-0.075 0.975,-0.3c0.45,-0.225 0.675,-0.375 0.75,-0.6c0.075,-0.15 0.075,-0.6 0.075,-1.35c-0,-1.65 -0.45,-2.85 -1.275,-3.6c-0.75,-0.675 -1.95,-1.2 -3.675,-1.5c-0.45,1.65 -1.725,2.4 -3.825,2.4c-0.675,-0 -1.35,-0.375 -2.025,-1.2c-0.675,-0.825 -1.05,-1.575 -1.05,-2.25c0,-1.05 0.45,-1.95 1.35,-2.625c-0.675,-0.75 -1.05,-1.5 -1.05,-2.25c0,-0.675 0.225,-1.35 0.675,-1.875c0.45,-0.525 1.05,-0.825 1.725,-0.9c-0.075,-0.9 0.225,-1.5 0.9,-1.875c-0.3,-0.3 -0.45,-0.825 -0.45,-1.65c0,-0.9 0.3,-1.725 0.9,-2.325c0.6,-0.6 1.425,-0.9 2.325,-0.9c1.05,-0 1.875,0.375 2.475,1.05c0.825,-2.775 2.625,-4.2 5.325,-4.2c1.425,-0 2.7,0.6 3.75,1.725c0.375,0.45 0.6,0.675 0.6,0.675c-0.375,-0 -0.15,-0.075 0.525,-0.225c0.675,-0.15 1.2,-0.225 1.5,-0.225c1.125,-0 2.1,0.375 2.925,1.2c0.75,0.75 1.275,1.65 1.5,2.775c0.225,-0 0.525,0.15 0.9,0.225c0.6,0.3 0.9,0.825 0.9,1.65c0,0.15 -0.15,0.375 -0.375,0.825c1.8,1.05 2.7,2.475 2.7,4.275c0,0.525 -0.225,1.2 -0.6,2.1c0.9,0.525 1.275,1.125 1.275,1.95Zm-17.475,1.875l-0,-0.525c-0,-0.675 -0.3,-1.275 -0.975,-1.8c-0.675,-0.525 -1.275,-0.825 -1.95,-0.825c-0.825,0 -1.5,0.15 -2.175,0.525c1.5,-0.075 3.15,0.825 5.1,2.625Zm-0.825,-5.25c-0.45,-0.45 -0.825,-0.975 -1.125,-1.5c-1.2,0.3 -1.8,0.675 -1.8,1.05c0.375,0 0.825,0 1.5,0.225c0.675,0.15 1.2,0.225 1.425,0.225Zm2.625,-1.35l0,-1.875c-0.675,-0.075 -1.125,-0.15 -1.2,-0.15l-0,0.675l1.2,1.35Zm5.55,-1.2c-0.375,-0.15 -0.975,-0.45 -1.95,-0.825l-0,3.675c1.35,-0.75 1.95,-1.725 1.95,-2.85Zm2.325,5.025l-0.9,-1.125c-0.6,0.375 -1.125,0.825 -1.725,1.2c-0.6,0.375 -1.05,0.9 -1.5,1.35c1.2,-0.675 2.625,-1.125 4.125,-1.425Z"/></svg>
