<svg xmlns="http://www.w3.org/2000/svg" viewBox="0 0 75 75" style="fill:#212121"><path d="M63.975,10.95c6.825,6.825 11.025,16.2 11.025,26.55c0,20.7 -16.8,37.5 -37.5,37.5c-10.35,0 -19.725,-4.2 -26.55,-10.95" style="fill:#CCC2C0;fill-rule:nonzero;"/><path d="M10.95,64.05c-6.75,-6.75 -10.95,-16.125 -10.95,-26.55c0,-20.7 16.8,-37.5 37.5,-37.5c10.35,0 19.725,4.2 26.475,10.95" style="fill:#ABE1FA;fill-rule:nonzero;"/><path d="M30.825,36.15c-2.025,2.025 -4.5,3.075 -7.425,3.075c-3.3,0 -5.925,-1.125 -7.875,-3.375c-1.875,-2.175 -2.775,-4.95 -2.775,-8.25c0,-3.6 1.575,-7.725 4.725,-12.3c2.55,-3.75 5.55,-7.125 9,-9.975c-0.525,2.325 -0.75,3.975 -0.75,4.95c0,2.25 0.675,4.425 2.1,6.525c1.725,2.55 3.075,4.425 3.975,5.625c1.425,2.1 2.1,4.2 2.1,6.225c-0,2.925 -1.05,5.4 -3.075,7.5Zm-0.075,-11.55c-0.525,-1.2 -1.2,-2.025 -1.875,-2.4c0.075,0.225 0.15,0.525 0.15,0.9c-0,0.75 -0.225,1.875 -0.675,3.225l-0.675,2.175c-0,1.275 0.6,1.875 1.875,1.875c1.35,-0 2.025,-0.9 2.025,-2.625c-0,-0.9 -0.225,-1.95 -0.825,-3.15Z"/><path d="M67.2,49.5c0,2.025 -0.75,3.375 -2.175,4.125c-0.45,0.225 -1.8,0.525 -4.05,0.9c-1.5,0.225 -2.175,0.825 -2.175,1.725l0,3.75c0,0.15 0.075,0.6 0.15,1.425l0.15,1.5c0,0.45 -0.075,1.2 -0.3,2.25c-0.6,0.15 -1.275,0.225 -2.025,0.45c-0.225,-0.9 -0.375,-1.575 -0.375,-1.875c0,-0.15 0,-0.375 0.15,-0.675c0.075,-0.3 0.15,-0.525 0.15,-0.675c0,-0.225 -0.225,-0.825 -0.6,-1.8l-0.75,0c-0.075,0.15 -0.15,0.375 -0.075,0.6c0.15,0.525 0.15,0.975 0.15,1.35c-0.525,0.375 -1.275,0.825 -2.175,1.5c-0.225,-0.075 -0.3,-0.075 -0.225,-0.075l0,-3.3c-0.075,-0.15 -0.225,-0.225 -0.45,-0.15l-0.525,0l-0.525,4.35l-1.575,0c-0.225,-1.05 -0.6,-2.55 -1.125,-4.5l-0.375,0c-0.375,1.05 -0.525,1.65 -0.525,1.725c0,0.15 0.075,0.375 0.15,0.75c0.075,0.375 0.15,0.6 0.15,0.75c0,0.075 0,0.3 -0.075,0.675l-0.15,1.125c-0.075,0.075 -0.15,0.075 -0.225,0.075c-0.9,0 -1.5,-0.225 -1.875,-0.675c-0.3,-0.45 -0.45,-1.125 -0.375,-1.95l0.375,-5.55c-0,-0.075 -0,-0.225 0.075,-0.375c0.075,-0.15 0.075,-0.225 0.075,-0.3c0,-0.225 -0.225,-0.75 -0.75,-1.5c-0.075,0 -0.6,-0.15 -1.425,-0.3c-0.525,-0.15 -1.575,-0.3 -3.075,-0.675c-2.1,-0.375 -3.15,-2.1 -3.15,-5.1c0,-4.5 1.875,-8.175 5.55,-11.175c0.15,0.825 0.45,1.95 0.75,3.3c0.3,0.075 0.9,0.225 1.8,0.45c0.15,0.075 1.125,0.375 2.775,1.05c-0.825,-0.525 -1.95,-1.35 -3.375,-2.55c-0.525,-0.6 -0.75,-1.65 -0.75,-3.075c-0,-0.375 0.6,-0.75 1.725,-1.2c1.05,-0.45 1.8,-0.675 2.325,-0.75c1.65,-0.225 2.925,-0.3 3.825,-0.3c3.825,0 6.9,0.975 9.3,2.925c-0.75,0.9 -2.1,1.875 -3.975,2.85c0.75,0 1.8,-0.225 3.225,-0.9c1.425,-0.6 2.025,-0.9 1.8,-0.9c0.225,0 0.75,0.525 1.5,1.5c0.525,0.75 0.975,1.425 1.35,1.95c0.975,1.725 1.65,3.675 1.95,5.7c0,0.675 0,1.2 0.075,1.5l0,0.075l-0.3,-0Zm-17.625,0.825c0,-1.35 -0.6,-2.55 -1.725,-3.75c-1.125,-1.2 -2.4,-1.8 -3.675,-1.8c-1.2,-0 -2.175,0.525 -3.075,1.5c-0.9,0.975 -1.35,2.1 -1.35,3.3c0,1.05 0.525,1.725 1.5,2.025c0.675,0.15 1.575,0.3 2.7,0.3l2.55,-0c2.025,0.075 3.075,-0.45 3.075,-1.575Zm5.025,5.7l0,-1.425c-0.225,-0.375 -0.45,-0.825 -0.675,-1.275c-0.15,-0.6 -0.525,-1.5 -1.05,-2.55l-0.525,5.4c0,0.45 -0.075,0.675 -0.3,0.675c-0.15,-0 -0.225,-0 -0.3,-0.075c-0.225,-3.225 -0.3,-4.65 -0.3,-4.2l0,-1.575c-0.075,-0.075 -0.15,-0.15 -0.225,-0.15c-1.05,1.05 -1.575,2.775 -1.575,5.175c0,1.35 0.15,2.1 0.375,2.475c0.225,-0.075 0.525,-0.15 0.825,-0.3c0.15,-0.075 0.45,-0.075 1.05,-0.075c0.6,-0 1.275,0.15 2.1,0.525c0.45,-0.15 0.6,-0.975 0.6,-2.625Zm10.425,-6.375c-0,-1.2 -0.45,-2.325 -1.35,-3.3c-0.9,-0.975 -1.95,-1.425 -3.15,-1.425c-1.275,-0 -2.475,0.6 -3.6,1.8c-1.125,1.2 -1.65,2.4 -1.65,3.675c-0,1.05 0.525,1.575 1.575,1.575l5.325,-0c1.8,-0.075 2.85,-0.825 2.85,-2.325Z"/></svg>
