<svg xmlns="http://www.w3.org/2000/svg" viewBox="0 0 75 75" style="fill:#212121"><path d="M63.975,10.95c6.825,6.825 11.025,16.2 11.025,26.55c0,20.7 -16.8,37.5 -37.5,37.5c-10.35,0 -19.725,-4.2 -26.55,-10.95" style="fill:#CCC2C0;fill-rule:nonzero;"/><path d="M10.95,64.05c-6.75,-6.75 -10.95,-16.125 -10.95,-26.55c0,-20.7 16.8,-37.5 37.5,-37.5c10.35,0 19.725,4.2 26.55,10.95" style="fill:#FFFCD5;fill-rule:nonzero;"/><path d="M67.2,49.5c-0,2.025 -0.75,3.375 -2.175,4.125c-0.45,0.225 -1.8,0.525 -4.05,0.9c-1.5,0.225 -2.175,0.825 -2.175,1.725l-0,3.75c-0,0.15 0.075,0.6 0.15,1.425l0.15,1.5c-0,0.45 -0.075,1.2 -0.3,2.25c-0.6,0.15 -1.275,0.225 -2.025,0.45c-0.225,-0.9 -0.375,-1.575 -0.375,-1.875c-0,-0.15 -0,-0.375 0.15,-0.675c0.075,-0.3 0.15,-0.525 0.15,-0.675c-0,-0.225 -0.225,-0.825 -0.6,-1.8l-0.75,0c-0.075,0.15 -0.15,0.375 -0.075,0.6c0.15,0.525 0.15,0.975 0.15,1.35c-0.525,0.375 -1.275,0.825 -2.175,1.5c-0.225,-0.075 -0.3,-0.075 -0.225,-0.075l-0,-3.3c-0.075,-0.15 -0.225,-0.225 -0.45,-0.15l-0.525,0l-0.525,4.35l-1.575,0c-0.225,-1.05 -0.6,-2.55 -1.125,-4.5l-0.375,0c-0.3,1.05 -0.525,1.65 -0.525,1.725c-0,0.15 0.075,0.375 0.15,0.75c0.075,0.375 0.15,0.6 0.15,0.75c-0,0.075 -0,0.3 -0.075,0.675l-0.15,1.125c-0.075,0.075 -0.15,0.075 -0.225,0.075c-0.9,0 -1.5,-0.225 -1.875,-0.675c-0.3,-0.45 -0.45,-1.125 -0.375,-1.95l0.375,-5.55c-0,-0.075 -0,-0.225 0.075,-0.375c0.075,-0.15 0.075,-0.225 0.075,-0.3c-0,-0.225 -0.225,-0.75 -0.75,-1.5c-0.075,0 -0.6,-0.15 -1.425,-0.3c-0.525,-0.15 -1.575,-0.3 -3.075,-0.675c-2.1,-0.375 -3.15,-2.1 -3.15,-5.1c-0,-4.5 1.875,-8.175 5.55,-11.175c0.15,0.825 0.45,1.95 0.75,3.3c0.3,0.075 0.9,0.225 1.8,0.45c0.15,0.075 1.125,0.375 2.775,1.05c-0.825,-0.525 -1.95,-1.35 -3.375,-2.55c-0.525,-0.6 -0.75,-1.65 -0.75,-3.075c-0,-0.375 0.6,-0.75 1.725,-1.2c1.05,-0.45 1.8,-0.675 2.325,-0.75c1.65,-0.225 2.925,-0.3 3.825,-0.3c3.825,0 6.9,0.975 9.3,2.925c-0.75,0.9 -2.1,1.875 -3.975,2.85c0.75,0 1.8,-0.225 3.225,-0.9c1.425,-0.6 2.025,-0.9 1.8,-0.9c0.225,0 0.75,0.525 1.5,1.5c0.525,0.75 0.975,1.425 1.35,1.95c0.975,1.725 1.65,3.675 1.95,5.7c-0,0.675 -0,1.2 0.075,1.5l-0.3,0.075Zm-17.625,0.825c-0,-1.35 -0.6,-2.55 -1.725,-3.75c-1.125,-1.2 -2.4,-1.8 -3.675,-1.8c-1.2,-0 -2.175,0.525 -3.075,1.5c-0.9,0.975 -1.35,2.1 -1.35,3.3c-0,1.05 0.525,1.725 1.5,2.025c0.675,0.15 1.575,0.3 2.7,0.3l2.55,-0c2.025,0.075 3.075,-0.45 3.075,-1.575Zm5.025,5.7l0,-1.425c-0.225,-0.375 -0.45,-0.825 -0.675,-1.275c-0.15,-0.6 -0.525,-1.5 -1.05,-2.55l-0.525,5.4c0,0.45 -0.075,0.675 -0.3,0.675c-0.15,-0 -0.225,-0 -0.3,-0.075c-0.225,-3.225 -0.3,-4.65 -0.3,-4.2l-0,-1.575c-0.075,-0.075 -0.15,-0.15 -0.225,-0.15c-1.05,1.05 -1.575,2.775 -1.575,5.175c-0,1.35 0.15,2.1 0.375,2.475c0.225,-0.075 0.525,-0.15 0.825,-0.3c0.15,-0.075 0.45,-0.075 1.05,-0.075c0.6,-0 1.275,0.15 2.1,0.525c0.45,-0.15 0.6,-0.975 0.6,-2.625Zm10.425,-6.375c-0,-1.2 -0.45,-2.325 -1.35,-3.3c-0.9,-0.975 -1.95,-1.425 -3.15,-1.425c-1.275,-0 -2.475,0.6 -3.6,1.8c-1.125,1.2 -1.65,2.4 -1.65,3.675c-0,1.05 0.525,1.575 1.575,1.575l5.325,-0c1.8,-0.075 2.85,-0.825 2.85,-2.325Z"/><path d="M41.025,28.725c-1.8,-1.725 -3.075,-2.625 -3.6,-2.775c-0.45,-0.075 -0.825,0.15 -1.275,0.75c-0.45,0.6 -0.975,0.825 -1.725,0.675c-0.3,-0.075 -0.9,-0.3 -1.725,-0.75c-0.675,0.675 -1.05,1.125 -1.125,1.35c-0.075,0.3 0.075,0.675 0.45,1.2c0.375,0.525 0.675,0.825 0.975,0.9c0.225,0.075 0.45,0.075 0.825,0.075c0.375,0 0.6,0 0.675,0.075c0.3,0.075 0.375,0.75 0.075,1.95c-0.3,1.2 -0.975,2.925 -2.1,5.175c-0.075,-2.925 -0.45,-4.5 -1.275,-4.65c-0.075,0 -0.375,0 -0.75,0.075c-0.375,0.075 -0.675,0.075 -0.825,0.075c-0.75,-0.15 -1.35,-1.05 -1.575,-2.625c-1.275,-0.075 -2.1,0.375 -2.325,1.425c-0.15,0.525 -0,1.05 0.45,1.5c0.45,0.45 0.6,0.75 0.6,0.9c-0.15,0.75 -1.5,1.575 -4.05,2.625c-1.35,0.525 -2.25,0.9 -2.775,1.125c0.525,-0.375 1.05,-0.975 1.575,-1.65c0.675,-0.825 1.05,-1.425 1.125,-1.95c0.075,-0.3 -0.15,-0.75 -0.675,-1.35c-0.525,-0.675 -0.675,-1.2 -0.6,-1.8c0.075,-0.45 0.375,-0.975 0.9,-1.575c-0.225,-0.525 -0.6,-0.825 -1.125,-0.9c-1.05,-0.225 -1.725,-0.075 -1.875,0.675c0.15,-0.45 -0,-0.15 -0.225,1.125c-0.15,0.9 -0.975,1.2 -2.325,0.825c-1.05,-0.225 -2.775,-0.9 -5.175,-2.025c3,0 4.575,-0.525 4.8,-1.425c-0,0.075 -0,-0.225 0.075,-1.05c0.075,-0.9 0.9,-1.5 2.325,-1.875c0.075,-1.275 -0.45,-2.1 -1.5,-2.325c-0.15,-0.075 -0.525,0.15 -1.125,0.675c-0.6,0.45 -1.05,0.675 -1.425,0.6c-0.675,-0.15 -1.35,-1.05 -2.025,-2.7c-0.3,-0.825 -0.825,-2.025 -1.5,-3.675c0.525,0.45 1.125,0.975 1.65,1.425c0.75,0.6 1.35,0.9 1.8,1.05c0.375,0.075 0.825,-0.15 1.35,-0.75c0.525,-0.6 1.05,-0.825 1.65,-0.675c0.075,0 0.6,0.3 1.5,0.9c0.675,-0.675 1.125,-1.2 1.2,-1.575c0.075,-0.3 -0,-0.75 -0.3,-1.275c-0.3,-0.525 -0.6,-0.825 -0.9,-0.9c-0.15,0 -0.375,-0.075 -0.675,0l-0.675,0c-0.525,-0.15 -0.6,-0.75 -0.3,-2.025c0.075,-0.3 0.825,-2.1 2.25,-5.325c-0.15,0.375 -0.15,1.2 -0,2.4c0.15,1.5 0.525,2.25 1.125,2.4c0.075,0 0.375,0 0.675,-0.075c0.375,-0.075 0.675,-0.075 0.825,-0.075c0.6,0.15 1.05,0.6 1.275,1.425l0.375,1.275c0.6,0.15 1.125,0.075 1.575,-0.3c0.45,-0.3 0.75,-0.75 0.9,-1.35c0.15,-0.6 -0,-1.125 -0.45,-1.575c-0.45,-0.45 -0.6,-0.75 -0.6,-0.9c0.15,-0.6 1.275,-1.35 3.375,-2.25c1.725,-0.75 2.775,-1.125 3.225,-1.275c-1.575,1.275 -2.4,2.325 -2.55,3c-0.075,0.375 0.075,0.825 0.375,1.35c0.45,0.675 0.675,1.125 0.75,1.35c0.15,0.675 -0.075,1.5 -0.675,2.55c0.6,0.675 1.125,1.05 1.5,1.2c0.75,0.15 1.275,-0.15 1.5,-0.9c-0,-0.075 0.075,-0.375 0.075,-0.825c-0,-0.45 0.075,-0.675 0.15,-0.75c0.225,-0.375 0.975,-0.375 2.4,-0c0.9,0.225 2.625,0.9 5.25,2.025c-0.6,-0 -1.575,0.075 -2.85,0.075c-1.125,0.075 -1.8,0.3 -1.875,0.675c-0.075,0.225 -0.075,0.525 -0,1.05c-0,0.525 -0,0.825 -0.075,1.05c-0.075,0.375 -0.45,0.675 -0.975,0.9l-1.65,0.675c0.15,0.675 0.3,1.05 0.375,1.2c0.225,0.375 0.525,0.675 0.975,0.75c0.3,0.075 0.675,-0.15 1.125,-0.675c0.375,-0.525 0.9,-0.675 1.5,-0.525c0.75,0.15 1.425,1.05 2.025,2.625c0.375,0.825 0.9,2.175 1.65,3.975Zm-8.475,-4.575c0.45,-1.725 0.15,-3.375 -0.825,-4.95c-0.975,-1.575 -2.325,-2.55 -4.05,-3c-1.725,-0.45 -3.45,-0.15 -5.025,0.825c-1.575,0.975 -2.55,2.325 -3,4.05c-0.45,1.725 -0.15,3.375 0.825,4.95c1.05,1.575 2.4,2.55 4.125,3c1.875,0.45 3.525,0.225 5.025,-0.675c1.5,-0.975 2.475,-2.325 2.925,-4.2Zm-0.6,-0.075c-0.375,1.65 -1.275,2.925 -2.625,3.675c-1.35,0.825 -2.85,1.05 -4.5,0.6c-1.575,-0.375 -2.85,-1.275 -3.675,-2.625c-0.9,-1.35 -1.125,-2.85 -0.75,-4.5c0.375,-1.575 1.275,-2.775 2.7,-3.6c1.425,-0.825 2.925,-1.05 4.5,-0.675c1.575,0.375 2.775,1.275 3.675,2.7c0.75,1.35 1.05,2.85 0.675,4.425Z"/></svg>
