<svg xmlns="http://www.w3.org/2000/svg" viewBox="0 0 75 75"><path d="M63.975,10.95c6.825,6.825 11.025,16.2 11.025,26.55c0,20.7 -16.8,37.5 -37.5,37.5c-10.35,0 -19.725,-4.2 -26.55,-10.95" style="fill:#ABE1FA;fill-rule:nonzero;"/><path d="M10.95,64.05c-6.75,-6.75 -10.95,-16.125 -10.95,-26.55c0,-20.7 16.8,-37.5 37.5,-37.5c10.35,0 19.725,4.2 26.55,10.95" style="fill:#c6c6c6;fill-rule:nonzero;"/><path d="M57.525,62.775c-2.025,2.025 -4.5,3.075 -7.425,3.075c-3.3,0 -5.925,-1.125 -7.875,-3.375c-1.875,-2.175 -2.775,-4.95 -2.775,-8.25c-0,-3.6 1.575,-7.725 4.725,-12.3c2.55,-3.75 5.55,-7.125 9,-9.975c-0.525,2.325 -0.75,3.975 -0.75,4.95c0,2.25 0.675,4.425 2.1,6.525c1.725,2.55 3.075,4.425 3.975,5.625c1.425,2.1 2.1,4.2 2.1,6.225c0,2.925 -1.05,5.4 -3.075,7.5Zm-0,-11.55c-0.525,-1.2 -1.2,-2.025 -1.875,-2.4c0.075,0.225 0.15,0.525 0.15,0.9c-0,0.75 -0.225,1.875 -0.675,3.225l-0.675,2.175c-0,1.275 0.6,1.875 1.875,1.875c1.35,0 2.025,-0.9 2.025,-2.625c-0.075,-0.9 -0.3,-1.95 -0.825,-3.15Z" style="fill:#1c2326;fill-rule:nonzero;"/><path d="M32.7,31.2l-2.175,7.275l-17.775,0l0,-1.575c0.9,-0.975 2.775,-2.925 5.7,-5.85c1.8,-1.8 3.525,-3.675 5.25,-5.625c0.9,-0.975 1.5,-1.8 2.025,-2.475c1.05,-1.5 1.575,-3 1.575,-4.575c-0,-1.5 -0.45,-2.85 -1.425,-4.05c-0.975,-1.2 -2.175,-1.725 -3.675,-1.725c-3.225,-0 -5.775,2.175 -7.575,6.525l-1.575,-0.6c2.175,-6.15 5.55,-9.225 10.275,-9.225c2.325,-0 4.275,0.75 5.85,2.325c1.65,1.575 2.4,3.525 2.4,5.775c-0,2.925 -1.65,5.775 -5.025,8.625l-3.525,2.925c-2.25,1.875 -4.125,3.6 -5.55,5.25c-0.075,0.075 -0.3,0.3 -0.6,0.675l9.3,-0c1.425,-0 2.55,-0.3 3.225,-0.825c0.6,-0.525 1.275,-1.425 1.875,-2.85l1.425,0Z"/></svg>
