<svg xmlns="http://www.w3.org/2000/svg" viewBox="0 0 75 75" style="fill:#000000"><circle cx="37.5" cy="37.5" r="37.5" style="fill:#FFFCD5;"/><path d="M58.172,37.444c0.044,-4.008 -1.23,-8.055 -3.725,-11.196c-1.206,-1.328 -2.197,-2.841 -3.475,-4.096c-2.815,-2.794 -7.031,-2.98 -10.422,-4.741c-0.198,-1.767 -0.844,-3.536 -0.453,-5.32c0.12,-0.593 0.294,-1.194 -0.021,-1.761c-0.89,-2.049 -0.126,-4.274 -0.284,-6.41c-0.119,-1.116 -0.043,-2.482 -1.105,-3.171c-0.248,2.322 -1.102,4.484 -1.794,6.688c-0.32,1.718 -0.32,3.507 -1.06,5.127c0.469,1.641 -0.461,3.023 -1.467,4.235c-2.225,1.14 -4.872,1.41 -6.808,3.082c-1.381,1.172 -2.871,2.198 -4.416,3.152c-1.159,1.45 -2.442,2.847 -2.958,4.68c-2.071,2.501 -2.316,5.858 -3.49,8.787c-0.022,4.349 0.859,9.033 3.637,12.519c1.988,1.64 3.377,3.848 5.361,5.489c1.905,1.138 3.938,2.072 5.906,3.096c1.282,0.298 2.606,0.445 3.882,0.794c1.035,5.332 1.741,10.793 3.819,15.85c0.689,-2.076 0.606,-4.301 1.2,-6.398c0.839,-3.102 -0.882,-6.331 0.088,-9.376c1.454,-1.3 3.878,-0.456 5.49,-1.571c3.069,-1.893 6.317,-3.736 8.543,-6.63c0.828,-1.665 2.569,-2.908 2.569,-4.905c0.014,-2.688 1.582,-5.206 0.983,-7.924Zm-22.78,16.447c-2.223,-0.54 -4.295,-1.604 -6.16,-2.903c-2.007,-1.337 -2.756,-3.832 -4.736,-5.2c-1.854,-2.214 -1.452,-5.237 -2.212,-7.857c0.305,-1.829 0.664,-3.642 0.853,-5.494c0.905,-1.467 2.301,-2.637 2.688,-4.403c1.325,-1.899 3.343,-3.213 4.964,-4.859c1.179,-1.36 3.056,-0.787 4.604,-0.839c-0.153,1.5 -0.276,3.051 0.1,4.531c0.183,0.909 0.593,1.804 0.453,2.756c-0.311,2.025 0.449,4.055 -0.088,6.056c-1.082,4.183 0.098,8.407 0.201,12.624c-0.154,1.868 -0.241,3.75 -0.667,5.588Zm16.858,-7.927c-1.473,1.047 -2.728,2.333 -4.013,3.589c-2.234,1.545 -4.442,3.18 -7.102,3.952c0.24,-1.897 0.474,-3.848 -0.13,-5.705c-1.484,-4.196 0.334,-8.584 0.641,-12.827c-0.271,-2.522 -0.012,-5.213 -1.168,-7.536c-0.152,-1.746 0.603,-3.431 1.114,-5.073c1.757,0.701 3.41,1.647 4.872,2.865c1.765,1.323 4.47,2.18 4.865,4.648c0.202,1.621 1.976,2.601 1.924,4.259c-0.111,3.942 0.433,8.065 -1.003,11.828Z"/></svg>
