<svg xmlns="http://www.w3.org/2000/svg" viewBox="0 0 75 75" style="fill:#212121"><circle cx="37.5" cy="37.5" r="37.5" style="fill:#F9AA8F;"/><path d="M68.974,49.963c-2.802,6.684 -8.37,10.025 -16.707,10.025c-1.527,0 -3.184,0.191 -4.965,0.572c-2.673,0.573 -4.01,1.371 -4.01,2.389c0,0.318 0.221,0.683 0.668,1.097c0.444,0.415 0.828,0.62 1.146,0.62c-1.593,-0 -0.51,0.048 3.244,0.143c3.756,0.095 6.111,0.143 7.067,0.143c-5.538,3.245 -14.799,4.739 -27.783,4.486c-4.266,-0.063 -7.924,-1.941 -10.979,-5.633c-2.994,-3.501 -4.488,-7.416 -4.488,-11.743c0,-4.581 1.543,-8.481 4.632,-11.696c3.085,-3.212 6.922,-4.821 11.504,-4.821c1.017,0 2.37,0.223 4.057,0.669c1.686,0.445 2.817,0.668 3.389,0.668c2.354,-0 5.283,-0.97 8.784,-2.912c3.5,-1.941 5.157,-2.913 4.966,-2.913c-0.637,6.684 -2.865,11.172 -6.685,13.461c-2.736,1.593 -4.105,3.151 -4.105,4.677c-0,0.955 0.573,1.72 1.718,2.293c0.891,0.446 1.877,0.669 2.959,0.669c1.655,0 3.278,-1.017 4.87,-3.053c1.59,-2.039 2.292,-3.883 2.101,-5.54c-0.19,-1.908 -0.063,-4.202 0.383,-6.873c0.126,-0.765 0.587,-1.702 1.383,-2.815c0.795,-1.115 1.512,-1.799 2.148,-2.054c0,0.572 -0.206,1.528 -0.621,2.864c-0.414,1.336 -0.619,2.325 -0.619,2.96c-0,1.4 0.381,2.482 1.145,3.245c1.144,-0.444 2.162,-1.877 3.056,-4.297c0.762,-1.844 1.206,-3.627 1.335,-5.345c-2.674,-0.128 -5.236,-1.336 -7.686,-3.629c-2.451,-2.293 -3.675,-4.774 -3.675,-7.446c0,-0.445 0.062,-0.891 0.192,-1.337c0.381,0.573 0.954,1.465 1.717,2.673c1.082,1.591 1.91,2.386 2.485,2.386c0.762,0 1.144,-0.795 1.144,-2.386c-0,-2.036 -0.543,-3.882 -1.623,-5.537c-1.21,-1.974 -2.77,-2.961 -4.679,-2.961c-0.892,0 -2.228,0.478 -4.008,1.433c-1.784,0.953 -3.407,1.432 -4.869,1.432c-0.447,0 -2.422,-0.574 -5.921,-1.719c6.172,-1.017 9.261,-1.94 9.261,-2.769c-0,-2.163 -4.234,-3.628 -12.698,-4.391c-0.828,-0.063 -2.355,-0.19 -4.583,-0.382c0.254,-0.318 2.069,-0.669 5.444,-1.05c2.863,-0.317 4.869,-0.478 6.013,-0.478c15.148,-0 24.759,7.354 28.832,22.056c0.701,-0.58 1.052,-1.55 1.052,-2.903c-0,-1.743 -0.51,-3.938 -1.528,-6.583c-0.384,-1.031 -0.988,-2.581 -1.815,-4.645c5.218,6.65 7.829,12.953 7.829,18.899c0,3.134 -0.734,5.98 -2.197,8.536c-0.953,1.727 -2.738,3.933 -5.345,6.62c-2.61,2.685 -4.393,4.764 -5.349,6.234c3.501,-0.953 5.794,-1.686 6.876,-2.196c2.418,-1.08 4.613,-2.704 6.588,-4.869c-0,0.83 -0.351,2.072 -1.05,3.726Zm-41.627,-37.519c0,1.144 -0.637,1.876 -1.909,2.194l-2.483,0.383c-0.892,0.445 -2.196,2.196 -3.914,5.25c-0.192,-0.953 -0.478,-2.29 -0.859,-4.01c-0.574,0.065 -1.527,0.573 -2.864,1.528c-0.573,0.446 -1.497,1.113 -2.77,2.004c0.384,-2.291 1.655,-4.611 3.821,-6.97c2.291,-2.607 4.518,-3.912 6.682,-3.912c2.864,-0 4.296,1.179 4.296,3.533Zm16.613,8.782c-0,1.082 -0.589,1.99 -1.767,2.721c-1.177,0.733 -2.339,1.099 -3.484,1.099c-1.528,0 -2.897,-0.859 -4.105,-2.578c-1.466,-2.101 -2.96,-3.469 -4.488,-4.108c0.318,-0.317 0.701,-0.476 1.147,-0.476c0.573,-0 1.541,0.445 2.911,1.335c1.368,0.892 2.242,1.338 2.626,1.338c0.318,-0 0.842,-0.446 1.575,-1.338c0.731,-0.891 1.543,-1.335 2.435,-1.335c2.1,0 3.15,1.115 3.15,3.342Z"/></svg>
