<svg xmlns="http://www.w3.org/2000/svg" viewBox="0 0 75 75"><circle cx="37.501" cy="37.5" r="37.5" style="fill:#c6c6c6;"/><g><path d="M28.382,66.868l1.766,-3.06l7.353,10.353l7.351,-10.353l1.766,3.06l3.254,0.038l6.379,3.071l0.53,-7.059l1.594,-2.839l-1.766,-3.059l12.642,-1.191l-5.292,-11.541l3.533,-0l1.66,-2.799l5.848,-3.989l-5.848,-3.989l-1.66,-2.798l-3.533,-0l5.291,-11.544l-12.641,-1.189l1.766,-3.06l-1.595,-2.837l-0.53,-7.059l-6.378,3.07l-3.254,0.038l-1.766,3.06l-7.352,-10.353l-7.352,10.353l-1.766,-3.06l-3.253,-0.038l-6.379,-3.07l-0.53,7.059l-1.594,2.837l1.766,3.06l-12.642,1.19l5.292,11.543l-3.534,-0l-1.659,2.799l-5.849,3.988l5.848,3.989l1.66,2.799l3.534,-0l-5.291,11.543l12.641,1.189l-1.766,3.059l1.594,2.838l0.531,7.06l6.378,-3.07l3.253,-0.039Z" style="fill:#000000;fill-rule:nonzero;"/><path d="M26.171,60.158l11.329,-18.252l11.329,18.252l-0,3.036l2.628,1.517l2.63,-1.517l0,-3.035l-2.63,-1.518l-10.141,-18.937l21.472,-0.687l2.629,1.519l2.628,-1.517l0,-3.037l-2.628,-1.517l-2.629,1.517l-21.472,-0.685l10.142,-18.937l2.63,-1.518l-0,-3.035l-2.63,-1.518l-2.628,1.518l-0.001,3.035l-11.328,18.252l-11.329,-18.252l-0.001,-3.036l-2.627,-1.517l-2.63,1.518l-0,3.035l2.629,1.518l10.142,18.937l-21.471,0.685l-2.631,-1.517l-2.627,1.516l0,3.036l2.627,1.518l2.631,-1.518l21.471,0.687l-10.143,18.937l-2.628,1.517l-0.001,3.036l2.63,1.517l2.628,-1.517l0,-3.036Z" style="fill:#fff;fill-rule:nonzero;"/></g><path d="M42.788,16.795l-5.287,9.216l-5.288,-9.216l5.288,-9.217l5.287,9.217Z" style="fill:#fff;fill-rule:nonzero;"/><path d="M22.213,22.568l5.337,9.187l-10.625,-0.029l-5.338,-9.187l10.626,0.028Z" style="fill:#fff;fill-rule:nonzero;"/><path d="M16.924,43.273l10.626,-0.029l-5.338,9.187l-10.625,0.029l5.338,-9.187Z" style="fill:#fff;fill-rule:nonzero;"/><path d="M32.212,58.205l5.288,-9.216l5.287,9.216l-5.287,9.217l-5.288,-9.217Z" style="fill:#fff;fill-rule:nonzero;"/><path d="M52.788,52.432l-5.337,-9.187l10.624,0.029l5.338,9.186l-10.625,-0.028Z" style="fill:#fff;fill-rule:nonzero;"/><path d="M58.077,31.727l-10.626,0.029l5.338,-9.187l10.624,-0.029l-5.336,9.187Z" style="fill:#fff;fill-rule:nonzero;"/></svg>
