<svg version="1" xmlns="http://www.w3.org/2000/svg" width="682.667" height="682.667" viewBox="0 0 512.000000 512.000000"><path d="M0 256v256h512V0H0v256zm205-43.4c31.5 64.1 57.7 116.7 58 116.9.3.2 9.3-20.4 19.9-45.8 10.6-25.4 32.6-78 48.8-117L361.3 96h62.6l.4 131.7c.3 95.4.7 134.3 1.6 140.8 3.1 23 7.6 35.8 15.3 43.5 4.3 4.3 12.7 9 16.1 9 1.4 0 1.7 1 1.7 6.5v6.5h-5.2c-14.1 0-33.9-3.8-45.9-8.6-13.2-5.4-25-15.3-31.8-26.8-4.2-7-8.6-19-11.4-31.1-2-8.7-2.1-12-2.6-106.9l-.6-97.9-52 124.6-52 124.7-8.4-.2-8.5-.3L176.8 282 113 152.6V412H89V96h58.5L205 212.6z"/></svg>