<svg xmlns="http://www.w3.org/2000/svg" viewBox="0 0 75 75"><circle cx="37.5" cy="37.5" r="37.5" style="fill:#CCC2C0;"/><path d="M68.021,36.466c0,4.138 -1.506,6.961 -4.515,8.465c-0.879,0.44 -3.637,1.034 -8.278,1.787c-3.009,0.503 -4.513,1.663 -4.513,3.48l-0,7.618c-0,0.317 0.094,1.286 0.281,2.917l0.283,3.01c-0,0.942 -0.22,2.48 -0.659,4.61c-1.191,0.25 -2.571,0.532 -4.139,0.849c-0.502,-1.883 -0.753,-3.168 -0.753,-3.86c0,-0.312 0.079,-0.784 0.235,-1.411c0.155,-0.626 0.237,-1.096 0.237,-1.412c-0,-0.435 -0.39,-1.66 -1.169,-3.666l-1.459,0c-0.193,0.314 -0.258,0.721 -0.195,1.222c0.25,1.067 0.344,1.975 0.283,2.728c-1.067,0.753 -2.54,1.755 -4.421,3.01c-0.44,-0.125 -0.595,-0.188 -0.472,-0.188l-0,-6.678c-0.123,-0.312 -0.438,-0.436 -0.941,-0.376l-1.128,-0l-1.128,8.84c-0.88,0.063 -1.944,0.063 -3.198,-0c-0.441,-2.069 -1.223,-5.14 -2.351,-9.217l-0.753,0c-0.692,2.197 -1.067,3.389 -1.13,3.577c0,0.25 0.078,0.736 0.236,1.456c0.155,0.722 0.235,1.207 0.235,1.458c-0,0.187 -0.063,0.657 -0.188,1.41l-0.283,2.258c-0.126,0.124 -0.282,0.187 -0.47,0.187c-1.881,0 -3.136,-0.47 -3.762,-1.409c-0.627,-0.942 -0.879,-2.259 -0.753,-3.953l0.753,-11.285c0,-0.189 0.062,-0.44 0.188,-0.753c0.123,-0.314 0.187,-0.534 0.187,-0.658c0,-0.503 -0.533,-1.506 -1.598,-3.011c-0.186,-0.061 -1.162,-0.282 -2.915,-0.659c-1.068,-0.25 -3.169,-0.688 -6.302,-1.317c-4.328,-0.813 -6.49,-4.294 -6.49,-10.44c-0,-9.155 3.763,-16.774 11.288,-22.856c0.31,1.693 0.845,3.949 1.597,6.772c0.565,0.127 1.788,0.408 3.668,0.846c0.378,0.126 2.29,0.816 5.739,2.07c-1.758,-1.066 -4.045,-2.789 -6.867,-5.173c-1.067,-1.254 -1.6,-3.353 -1.6,-6.3c0,-0.69 1.193,-1.506 3.576,-2.448c2.13,-0.878 3.731,-1.377 4.797,-1.505c3.386,-0.436 5.988,-0.659 7.808,-0.659c7.837,0 14.168,2.009 18.996,6.022c-1.566,1.819 -4.263,3.76 -8.087,5.83c1.506,0.063 3.7,-0.531 6.584,-1.788c2.883,-1.252 4.106,-1.881 3.668,-1.881c0.501,0 1.506,1.005 3.011,3.011c1.128,1.504 2.036,2.855 2.727,4.043c2.006,3.576 3.354,7.431 4.045,11.57c0,1.444 0.031,2.478 0.094,3.104l-0,0.753l0.001,-0Zm-36.023,1.693c0,-2.695 -1.176,-5.251 -3.527,-7.667c-2.353,-2.414 -4.877,-3.619 -7.572,-3.619c-2.384,-0 -4.483,1.011 -6.302,3.029c-1.819,2.02 -2.727,4.261 -2.727,6.722c-0,2.144 1.034,3.535 3.104,4.165c1.317,0.379 3.164,0.601 5.548,0.662l5.174,0c4.198,0.063 6.302,-1.034 6.302,-3.292Zm10.251,11.665l0,-2.917c-0.438,-0.814 -0.878,-1.661 -1.316,-2.54c-0.376,-1.255 -1.066,-3.01 -2.069,-5.269l-1.036,11.006c-0,0.879 -0.188,1.317 -0.564,1.317c-0.251,-0 -0.438,-0.062 -0.564,-0.186c-0.44,-6.647 -0.659,-9.532 -0.659,-8.656l-0,-3.29c-0.127,-0.191 -0.282,-0.284 -0.469,-0.284c-2.133,2.197 -3.198,5.739 -3.198,10.629c-0,2.697 0.247,4.358 0.751,4.986c0.503,-0.125 1.067,-0.345 1.694,-0.658c0.25,-0.126 0.971,-0.189 2.165,-0.189c1.188,-0 2.633,0.376 4.325,1.128c0.627,-0 0.94,-1.692 0.94,-5.077Zm21.258,-13.106c0,-2.525 -0.94,-4.781 -2.821,-6.769c-1.883,-1.986 -4.047,-2.981 -6.489,-2.981c-2.634,-0 -5.097,1.205 -7.385,3.619c-2.29,2.415 -3.433,4.938 -3.433,7.572c-0,2.196 1.065,3.292 3.198,3.292l10.816,0c4.075,-0.061 6.114,-1.639 6.114,-4.733Z"/></svg>
