<svg xmlns="http://www.w3.org/2000/svg" viewBox="0 0 75 75" style="fill:#1c2326"><path d="M63.975,10.95c6.825,6.825 11.025,16.2 11.025,26.55c0,20.7 -16.8,37.5 -37.5,37.5c-10.35,0 -19.725,-4.2 -26.55,-10.95" style="fill:#F9AA8F;fill-rule:nonzero;"/><path d="M10.95,64.05c-6.75,-6.75 -10.95,-16.125 -10.95,-26.55c0,-20.7 16.8,-37.5 37.5,-37.5c10.35,0 19.725,4.2 26.475,10.95" style="fill:#ABE1FA;fill-rule:nonzero;"/><path d="M66.225,55.8c-1.275,3.075 -3.825,4.575 -7.65,4.575c-0.675,-0 -1.5,0.075 -2.25,0.3c-1.2,0.3 -1.875,0.6 -1.875,1.125c0,0.15 0.075,0.3 0.3,0.525c0.225,0.225 0.375,0.3 0.525,0.3c-0.75,-0 -0.225,-0 1.5,0.075c1.725,0.075 2.775,0.075 3.225,0.075c-2.55,1.5 -6.825,2.175 -12.75,2.1c-1.95,0 -3.675,-0.9 -5.025,-2.625c-1.35,-1.575 -2.1,-3.375 -2.1,-5.4c0,-2.1 0.675,-3.9 2.1,-5.4c1.425,-1.5 3.15,-2.25 5.325,-2.25c0.45,0 1.125,0.075 1.875,0.3c0.75,0.225 1.275,0.3 1.575,0.3c1.05,-0 2.4,-0.45 4.05,-1.35c1.575,-0.9 2.4,-1.35 2.25,-1.35c-0.3,3.075 -1.35,5.1 -3.075,6.15c-1.275,0.75 -1.875,1.425 -1.875,2.175c0,0.45 0.225,0.825 0.825,1.05c0.375,0.225 0.9,0.3 1.35,0.3c0.75,-0 1.5,-0.45 2.25,-1.425c0.75,-0.9 1.05,-1.8 0.975,-2.55c-0.075,-0.9 0,-1.95 0.15,-3.15c0.075,-0.375 0.3,-0.75 0.6,-1.275c0.375,-0.525 0.675,-0.825 0.975,-0.975c0,0.3 -0.075,0.675 -0.3,1.35c-0.225,0.6 -0.3,1.05 -0.3,1.35c0,0.675 0.15,1.125 0.525,1.5c0.525,-0.225 0.975,-0.825 1.425,-1.95c0.375,-0.825 0.525,-1.65 0.6,-2.475c-1.2,-0.075 -2.4,-0.6 -3.525,-1.65c-1.125,-1.05 -1.725,-2.175 -1.725,-3.45c0,-0.225 0,-0.375 0.075,-0.6c0.15,0.3 0.45,0.675 0.825,1.2c0.525,0.75 0.9,1.125 1.125,1.125c0.375,-0 0.525,-0.375 0.525,-1.125c0,-0.9 -0.225,-1.8 -0.75,-2.55c-0.525,-0.9 -1.275,-1.35 -2.175,-1.35c-0.375,-0 -1.05,0.225 -1.875,0.675c-0.825,0.45 -1.575,0.675 -2.25,0.675c-0.225,-0 -1.125,-0.3 -2.7,-0.825c2.85,-0.45 4.275,-0.9 4.275,-1.275c0,-0.975 -1.95,-1.65 -5.85,-2.025c-0.375,-0 -1.05,-0.075 -2.1,-0.15c0.15,-0.15 0.975,-0.3 2.475,-0.45c1.35,-0.15 2.25,-0.225 2.775,-0.225c6.975,-0 11.4,3.375 13.275,10.125c0.3,-0.3 0.45,-0.75 0.45,-1.35c0,-0.825 -0.225,-1.8 -0.675,-3c-0.15,-0.45 -0.45,-1.2 -0.825,-2.1c2.4,3.075 3.6,5.925 3.6,8.7c0,1.425 -0.375,2.775 -0.975,3.9c-0.45,0.825 -1.275,1.8 -2.475,3.075c-1.2,1.2 -2.025,2.175 -2.475,2.85c1.575,-0.45 2.7,-0.75 3.15,-0.975c1.125,-0.525 2.1,-1.275 3,-2.25c0.075,0.375 -0.075,0.9 -0.375,1.65Zm-19.125,-17.25c0,0.525 -0.3,0.9 -0.9,0.975l-1.125,0.15c-0.375,0.225 -0.975,0.975 -1.8,2.4c-0.075,-0.45 -0.225,-1.05 -0.375,-1.875c-0.3,0 -0.675,0.3 -1.35,0.675c-0.3,0.225 -0.675,0.525 -1.275,0.9c0.15,-1.05 0.75,-2.1 1.725,-3.225c1.05,-1.2 2.1,-1.8 3.075,-1.8c1.35,0.225 2.025,0.75 2.025,1.8Zm7.65,4.05c0,0.525 -0.3,0.9 -0.825,1.275c-0.525,0.3 -1.05,0.525 -1.575,0.525c-0.675,0 -1.35,-0.375 -1.875,-1.2c-0.675,-0.975 -1.35,-1.575 -2.1,-1.875c0.15,-0.15 0.3,-0.225 0.525,-0.225c0.225,0 0.675,0.225 1.35,0.6c0.6,0.375 1.05,0.6 1.2,0.6c0.15,-0 0.375,-0.225 0.75,-0.6c0.3,-0.375 0.675,-0.6 1.125,-0.6c0.9,0 1.425,0.525 1.425,1.5Z"/><path d="M30.825,36.15c-2.025,2.025 -4.5,3.075 -7.425,3.075c-3.3,0 -5.925,-1.125 -7.875,-3.375c-1.875,-2.175 -2.775,-4.95 -2.775,-8.25c0,-3.6 1.575,-7.725 4.725,-12.3c2.55,-3.75 5.55,-7.125 9,-9.975c-0.525,2.325 -0.75,3.975 -0.75,4.95c0,2.25 0.675,4.425 2.1,6.525c1.725,2.55 3.075,4.425 3.975,5.625c1.425,2.1 2.1,4.2 2.1,6.225c-0,2.925 -1.05,5.4 -3.075,7.5Zm-0.075,-11.55c-0.525,-1.2 -1.2,-2.025 -1.875,-2.4c0.075,0.225 0.15,0.525 0.15,0.9c-0,0.75 -0.225,1.875 -0.675,3.225l-0.675,2.175c0,1.275 0.6,1.875 1.875,1.875c1.35,-0 2.025,-0.9 2.025,-2.625c0,-0.9 -0.225,-1.95 -0.825,-3.15Z"/></svg>
