<svg xmlns="http://www.w3.org/2000/svg" viewBox="0 0 75 75"><path d="M75,37.498c0,20.712 -16.789,37.502 -37.502,37.502c-20.709,0 -37.498,-16.79 -37.498,-37.502c0,-20.709 16.789,-37.498 37.499,-37.498c20.712,0 37.501,16.789 37.501,37.498Z" style="fill:#a3c095;fill-rule:nonzero;"/><path d="M58.172,37.444c0.044,-4.008 -1.231,-8.055 -3.725,-11.196c-1.207,-1.328 -2.198,-2.841 -3.475,-4.096c-2.816,-2.794 -7.032,-2.98 -10.423,-4.741c-0.197,-1.767 -0.844,-3.536 -0.452,-5.32c0.119,-0.593 0.294,-1.194 -0.021,-1.761c-0.891,-2.049 -0.127,-4.274 -0.285,-6.41c-0.118,-1.116 -0.042,-2.482 -1.105,-3.171c-0.248,2.322 -1.102,4.484 -1.794,6.688c-0.32,1.718 -0.32,3.507 -1.06,5.127c0.469,1.641 -0.46,3.023 -1.467,4.235c-2.225,1.14 -4.872,1.41 -6.808,3.082c-1.381,1.172 -2.871,2.198 -4.416,3.152c-1.159,1.45 -2.442,2.847 -2.958,4.68c-2.071,2.501 -2.316,5.858 -3.49,8.787c-0.022,4.349 0.859,9.033 3.637,12.519c1.988,1.64 3.377,3.848 5.361,5.489c1.905,1.138 3.939,2.072 5.906,3.096c1.282,0.298 2.606,0.445 3.882,0.794c1.035,5.332 1.741,10.793 3.818,15.85c0.69,-2.076 0.607,-4.301 1.202,-6.398c0.838,-3.102 -0.882,-6.331 0.087,-9.376c1.454,-1.3 3.878,-0.456 5.49,-1.571c3.069,-1.893 6.317,-3.736 8.543,-6.63c0.828,-1.665 2.569,-2.908 2.569,-4.905c0.014,-2.688 1.581,-5.206 0.984,-7.924Zm-22.781,16.447c-2.224,-0.54 -4.295,-1.604 -6.161,-2.903c-2.007,-1.337 -2.755,-3.832 -4.735,-5.2c-1.854,-2.214 -1.453,-5.237 -2.213,-7.857c0.305,-1.829 0.664,-3.642 0.854,-5.494c0.904,-1.467 2.3,-2.637 2.687,-4.403c1.325,-1.899 3.344,-3.213 4.964,-4.859c1.179,-1.36 3.056,-0.787 4.605,-0.839c-0.154,1.5 -0.276,3.051 0.099,4.531c0.184,0.909 0.594,1.804 0.453,2.756c-0.311,2.025 0.449,4.055 -0.088,6.056c-1.082,4.183 0.098,8.407 0.201,12.624c-0.154,1.868 -0.241,3.75 -0.666,5.588Zm16.858,-7.927c-1.473,1.047 -2.729,2.333 -4.014,3.589c-2.234,1.545 -4.443,3.18 -7.101,3.952c0.239,-1.897 0.473,-3.848 -0.132,-5.705c-1.483,-4.196 0.335,-8.584 0.641,-12.827c-0.27,-2.522 -0.012,-5.213 -1.168,-7.536c-0.152,-1.746 0.602,-3.431 1.114,-5.073c1.756,0.701 3.41,1.647 4.872,2.865c1.765,1.323 4.47,2.18 4.865,4.648c0.202,1.621 1.975,2.601 1.923,4.259c-0.109,3.942 0.435,8.065 -1,11.828Z"/></svg>
