<svg xmlns="http://www.w3.org/2000/svg" viewBox="0 0 75 75"><circle cx="37.5" cy="37.5" r="37.5" style="fill:#9a9998;"/><path d="M58.172,37.445c0.043,-4.008 -1.23,-8.054 -3.726,-11.196c-1.206,-1.328 -2.197,-2.84 -3.475,-4.095c-2.815,-2.795 -7.031,-2.981 -10.422,-4.741c-0.198,-1.768 -0.844,-3.536 -0.453,-5.32c0.12,-0.593 0.294,-1.195 -0.021,-1.762c-0.89,-2.049 -0.126,-4.273 -0.284,-6.41c-0.118,-1.116 -0.042,-2.482 -1.105,-3.171c-0.248,2.323 -1.102,4.484 -1.794,6.689c-0.32,1.717 -0.32,3.507 -1.06,5.127c0.469,1.641 -0.461,3.022 -1.467,4.234c-2.225,1.14 -4.872,1.411 -6.808,3.083c-1.381,1.171 -2.871,2.198 -4.416,3.151c-1.158,1.451 -2.442,2.848 -2.958,4.68c-2.071,2.501 -2.316,5.858 -3.49,8.788c-0.022,4.349 0.859,9.032 3.637,12.518c1.988,1.641 3.377,3.848 5.361,5.49c1.905,1.137 3.939,2.072 5.906,3.095c1.282,0.299 2.606,0.446 3.882,0.795c1.035,5.331 1.741,10.793 3.819,15.849c0.689,-2.076 0.606,-4.3 1.2,-6.398c0.839,-3.102 -0.881,-6.331 0.088,-9.376c1.454,-1.299 3.878,-0.456 5.49,-1.571c3.069,-1.892 6.317,-3.735 8.543,-6.63c0.828,-1.664 2.569,-2.908 2.569,-4.904c0.014,-2.689 1.582,-5.207 0.983,-7.925Zm-22.78,16.448c-2.224,-0.541 -4.295,-1.604 -6.161,-2.903c-2.007,-1.338 -2.755,-3.833 -4.735,-5.201c-1.854,-2.213 -1.453,-5.237 -2.213,-7.857c0.305,-1.828 0.664,-3.642 0.854,-5.494c0.904,-1.467 2.3,-2.637 2.687,-4.402c1.326,-1.899 3.344,-3.213 4.964,-4.859c1.179,-1.36 3.056,-0.787 4.605,-0.84c-0.154,1.5 -0.276,3.051 0.1,4.531c0.183,0.909 0.593,1.804 0.452,2.757c-0.311,2.024 0.449,4.054 -0.088,6.056c-1.082,4.183 0.098,8.406 0.201,12.624c-0.154,1.868 -0.241,3.749 -0.666,5.588Zm16.858,-7.928c-1.473,1.047 -2.728,2.334 -4.014,3.589c-2.234,1.545 -4.442,3.18 -7.101,3.953c0.24,-1.897 0.474,-3.849 -0.131,-5.706c-1.483,-4.195 0.335,-8.583 0.641,-12.826c-0.27,-2.522 -0.012,-5.213 -1.168,-7.537c-0.152,-1.745 0.603,-3.431 1.114,-5.073c1.757,0.701 3.411,1.648 4.872,2.865c1.766,1.323 4.471,2.181 4.866,4.649c0.201,1.62 1.975,2.601 1.923,4.259c-0.111,3.942 0.433,8.064 -1.002,11.827Z"/></svg>
