<svg xmlns="http://www.w3.org/2000/svg" viewBox="0 0 75 75" style="fill:#1c2326"><circle cx="37.5" cy="37.5" r="37.5" style="fill:#FFFCD5;"/><path d="M73.268,42.798c-4.921,-2.774 -8.076,-4.163 -9.463,-4.163c-1.008,-0 -1.796,0.774 -2.365,2.319c-0.569,1.547 -1.703,2.317 -3.406,2.317c-0.694,0 -2.113,-0.252 -4.258,-0.756c-1.199,1.83 -1.799,2.997 -1.799,3.501c0,0.695 0.517,1.512 1.548,2.461c1.031,0.946 1.901,1.418 2.612,1.418c0.451,0 1.062,-0.093 1.837,-0.284c0.773,-0.188 1.29,-0.283 1.547,-0.283c0.775,0 1.161,1.42 1.161,4.259c-0,2.712 -0.63,6.876 -1.892,12.49c-1.641,-6.435 -3.375,-9.653 -5.204,-9.653c-0.254,0 -0.773,0.189 -1.561,0.57c-0.79,0.377 -1.373,0.566 -1.751,0.566c-1.828,-0 -3.469,-1.671 -4.921,-5.016c-2.901,0.442 -4.353,1.925 -4.353,4.45c-0,1.263 0.582,2.27 1.752,3.026c1.164,0.756 1.75,1.295 1.75,1.609c0,1.705 -2.493,4.323 -7.477,7.855c-2.648,1.892 -4.479,3.216 -5.487,3.972c0.881,-1.134 1.764,-2.615 2.65,-4.446c1.008,-2.081 1.514,-3.69 1.514,-4.826c-0,-0.63 -0.726,-1.515 -2.177,-2.65c-1.452,-1.134 -2.175,-2.334 -2.175,-3.595c0,-1.071 0.377,-2.395 1.134,-3.974c-0.82,-0.947 -1.796,-1.422 -2.932,-1.422c-2.524,0 -3.784,0.822 -3.784,2.46c-0,-1.135 -0,-0.284 -0,2.555c0.061,2.082 -1.515,3.123 -4.733,3.123c-2.46,-0 -6.594,-0.569 -12.396,-1.703c6.561,-1.641 9.841,-3.533 9.841,-5.678c0,0.252 -0.126,-0.504 -0.378,-2.271c-0.253,-1.953 1.136,-3.721 4.163,-5.297c-0.568,-2.9 -2.079,-4.355 -4.542,-4.355c-0.378,0 -1.074,0.663 -2.082,1.986c-1.009,1.328 -1.955,1.989 -2.837,1.989c-1.515,-0 -3.472,-1.64 -5.866,-4.923c-1.137,-1.638 -2.873,-4.068 -5.206,-7.286c1.45,0.759 2.902,1.515 4.354,2.273c1.892,0.883 3.405,1.325 4.542,1.325c0.884,-0 1.751,-0.773 2.602,-2.319c0.851,-1.546 1.972,-2.319 3.359,-2.319c0.191,0 1.452,0.378 3.786,1.137c1.197,-1.829 1.798,-3.186 1.798,-4.07c0,-0.757 -0.458,-1.624 -1.372,-2.603c-0.916,-0.977 -1.751,-1.466 -2.508,-1.466c-0.317,0 -0.804,0.094 -1.468,0.284c-0.661,0.189 -1.15,0.285 -1.465,0.285c-1.137,-0 -1.705,-1.42 -1.705,-4.259c0,-0.758 0.727,-5.077 2.178,-12.964c-0.064,0.945 0.346,2.713 1.23,5.298c1.072,3.156 2.333,4.732 3.786,4.732c0.251,0 0.756,-0.189 1.514,-0.568c0.756,-0.378 1.355,-0.566 1.797,-0.566c1.45,0 2.648,0.821 3.596,2.458l1.42,2.554c1.324,0 2.428,-0.471 3.31,-1.418c0.884,-0.947 1.326,-2.083 1.326,-3.407c0,-1.388 -0.582,-2.445 -1.75,-3.171c-1.17,-0.725 -1.752,-1.277 -1.752,-1.655c-0,-1.326 2.082,-3.564 6.246,-6.718c3.343,-2.523 5.519,-4.005 6.53,-4.448c-2.713,3.659 -4.07,6.339 -4.07,8.043c0,0.884 0.535,1.831 1.609,2.839c1.325,1.198 2.081,2.05 2.27,2.554c0.63,1.454 0.567,3.44 -0.189,5.962c1.704,1.2 2.996,1.797 3.881,1.797c1.827,0 2.743,-0.948 2.743,-2.839c0,-0.189 -0.078,-0.788 -0.235,-1.797c-0.16,-1.008 -0.205,-1.576 -0.143,-1.703c0.252,-0.883 1.987,-1.326 5.204,-1.326c2.018,0 6.212,0.569 12.586,1.705c-1.389,0.378 -3.471,0.945 -6.245,1.702c-2.524,0.758 -3.787,1.609 -3.787,2.555c0,0.442 0.157,1.198 0.474,2.27c0.315,1.074 0.474,1.86 0.474,2.367c0,0.882 -0.568,1.703 -1.703,2.458l-3.218,2.273c0.757,1.389 1.261,2.209 1.515,2.459c0.63,0.756 1.481,1.136 2.554,1.136c0.758,-0 1.451,-0.662 2.082,-1.986c0.63,-1.326 1.641,-1.988 3.027,-1.988c1.703,0 3.629,1.578 5.773,4.734c1.195,1.77 3.056,4.449 5.58,8.045Zm-21.005,-5.487c0,-4.036 -1.484,-7.538 -4.449,-10.505c-2.965,-2.964 -6.466,-4.447 -10.503,-4.447c-4.102,-0 -7.635,1.468 -10.598,4.402c-2.965,2.932 -4.48,6.45 -4.542,10.549c-0.064,4.038 1.434,7.523 4.494,10.454c3.06,2.934 6.609,4.401 10.645,4.401c4.289,0 7.869,-1.404 10.739,-4.211c2.872,-2.805 4.275,-6.352 4.214,-10.643Zm-1.42,-0c0,3.848 -1.294,7.036 -3.88,9.555c-2.589,2.525 -5.805,3.787 -9.652,3.787c-3.722,-0 -6.908,-1.293 -9.557,-3.881c-2.648,-2.584 -3.974,-5.739 -3.974,-9.461c0,-3.658 1.339,-6.798 4.02,-9.415c2.683,-2.617 5.852,-3.928 9.511,-3.928c3.658,-0 6.828,1.324 9.51,3.976c2.681,2.649 4.022,5.771 4.022,9.367Z"/></svg>
